RobotoCondensed-Regular.ufo
<glyph name="exclam" format="2">
  <advance width="504"/>
  <unicode hex="0021"/>
  <guideline x="0.0" y="901.0" angle="0.0" identifier="LquKmtSQgM"/>
  <guideline x="0.0" y="555.0" angle="0.0" identifier="0kmUOZlSB0"/>
  <outline>
    <contour>
      <point x="346" y="1456" type="line"/>
      <point x="160" y="1456" type="line"/>
      <point x="174" y="411" type="line"/>
      <point x="333" y="411" type="line"/>
    </contour>
    <contour>
      <point x="157" y="93" type="curve" smooth="yes"/>
      <point x="157" y="35"/>
      <point x="191" y="-12"/>
      <point x="257" y="-12" type="curve" smooth="yes"/>
      <point x="324" y="-12"/>
      <point x="358" y="35"/>
      <point x="358" y="93" type="curve" smooth="yes"/>
      <point x="358" y="153"/>
      <point x="324" y="200"/>
      <point x="257" y="200" type="curve" smooth="yes"/>
      <point x="191" y="200"/>
      <point x="157" y="153"/>
    </contour>
  </outline>
</glyph>
<glyph name="G" format="2">
  <advance width="1210"/>
  <unicode hex="0047"/>
  <guideline x="0.0" y="901.0" angle="0.0" identifier="EqeXG5dQd7"/>
  <guideline x="0.0" y="555.0" angle="0.0" identifier="Zkv5tkfbia"/>
  <anchor x="579" y="1633" name="top"/>
  <anchor x="633" y="-9" name="bottom"/>
  <anchor x="1190" y="1600" name="top_dd"/>
  <anchor x="1190" y="-407" name="bottom_dd"/>
  <anchor x="1190" y="1633" name="top0315"/>
  <anchor x="579" y="1633" name="parent_top"/>
  <outline>
    <contour>
      <point x="1069" y="725" type="line"/>
      <point x="619" y="725" type="line"/>
      <point x="619" y="569" type="line"/>
      <point x="886" y="569" type="line"/>
      <point x="886" y="233" type="line"/>
      <point x="854" y="205"/>
      <point x="803" y="137"/>
      <point x="634" y="137" type="curve" smooth="yes"/>
      <point x="435" y="137"/>
      <point x="308" y="282"/>
      <point x="308" y="592" type="curve" smooth="yes"/>
      <point x="308" y="867" type="line" smooth="yes"/>
      <point x="308" y="1169"/>
      <point x="391" y="1318"/>
      <point x="614" y="1318" type="curve" smooth="yes"/>
      <point x="789" y="1318"/>
      <point x="870" y="1210"/>
      <point x="885" y="1030" type="curve"/>
      <point x="1069" y="1030" type="line"/>
      <point x="1054" y="1310"/>
      <point x="896" y="1476"/>
      <point x="614" y="1476" type="curve" smooth="yes"/>
      <point x="289" y="1476"/>
      <point x="124" y="1274"/>
      <point x="124" y="865" type="curve" smooth="yes"/>
      <point x="124" y="592" type="line" smooth="yes"/>
      <point x="124" y="182"/>
      <point x="332" y="-20"/>
      <point x="633" y="-20" type="curve" smooth="yes"/>
      <point x="914" y="-20"/>
      <point x="1021" y="117"/>
      <point x="1069" y="182" type="curve"/>
    </contour>
  </outline>
</glyph>
<glyph name="w" format="2">
  <advance width="1331"/>
  <unicode hex="0077"/>
  <anchor x="661" y="1290" name="top"/>
  <anchor x="663" y="10" name="bottom"/>
  <anchor x="661" y="1290" name="marktop"/>
  <anchor x="1311" y="1600" name="top_dd"/>
  <anchor x="1311" y="-407" name="bottom_dd"/>
  <anchor x="1311" y="1290" name="top0315"/>
  <anchor x="661" y="1290" name="parent_top"/>
  <outline>
    <contour>
      <point x="355" y="192" type="line"/>
      <point x="345" y="0" type="line"/>
      <point x="456" y="0" type="line"/>
      <point x="696" y="905" type="line"/>
      <point x="709" y="1082" type="line"/>
      <point x="594" y="1082" type="line"/>
    </contour>
    <contour>
      <point x="225" y="1082" type="line"/>
      <point x="50" y="1082" type="line"/>
      <point x="314" y="0" type="line"/>
      <point x="431" y="0" type="line"/>
      <point x="426" y="182" type="line"/>
    </contour>
    <contour>
      <point x="914" y="189" type="line"/>
      <point x="899" y="0" type="line"/>
      <point x="1014" y="0" type="line"/>
      <point x="1278" y="1082" type="line"/>
      <point x="1104" y="1082" type="line"/>
    </contour>
    <contour>
      <point x="734" y="1082" type="line"/>
      <point x="612" y="1082" type="line"/>
      <point x="625" y="907" type="line"/>
      <point x="873" y="0" type="line"/>
      <point x="983" y="0" type="line"/>
      <point x="967" y="207" type="line"/>
    </contour>
  </outline>
</glyph>
<glyph name="sterling" format="2">
  <advance width="1047"/>
  <unicode hex="00A3"/>
  <outline>
    <contour>
      <point x="978" y="0" type="line"/>
      <point x="979" y="157" type="line"/>
      <point x="100" y="157" type="line"/>
      <point x="100" y="0" type="line"/>
    </contour>
    <contour>
      <point x="667" y="623" type="line"/>
      <point x="667" y="780" type="line"/>
      <point x="96" y="780" type="line"/>
      <point x="96" y="623" type="line"/>
    </contour>
    <contour>
      <point x="400" y="1039" type="line"/>
      <point x="400" y="1219"/>
      <point x="484" y="1319"/>
      <point x="585" y="1319" type="curve" smooth="yes"/>
      <point x="681" y="1319"/>
      <point x="771" y="1254"/>
      <point x="771" y="1087" type="curve"/>
      <point x="954" y="1087" type="line"/>
      <point x="954" y="1319"/>
      <point x="824" y="1476"/>
      <point x="601" y="1476" type="curve" smooth="yes"/>
      <point x="382" y="1476"/>
      <point x="216" y="1315"/>
      <point x="216" y="1039" type="curve" smooth="yes"/>
      <point x="234" y="401" type="line" smooth="yes"/>
      <point x="234" y="313"/>
      <point x="215" y="174"/>
      <point x="157" y="157" type="curve"/>
      <point x="321" y="104" type="line"/>
      <point x="386" y="159"/>
      <point x="418" y="277"/>
      <point x="418" y="402" type="curve" smooth="yes"/>
    </contour>
  </outline>
</glyph>
<glyph name="thorn" format="2">
  <advance width="1041"/>
  <unicode hex="00FE"/>
  <outline>
    <contour>
      <point x="319" y="1536" type="line"/>
      <point x="142" y="1536" type="line"/>
      <point x="142" y="-416" type="line"/>
      <point x="319" y="-416" type="line"/>
    </contour>
    <contour>
      <point x="924" y="550" type="line"/>
      <point x="924" y="880"/>
      <point x="798" y="1102"/>
      <point x="567" y="1102" type="curve" smooth="yes"/>
      <point x="332" y="1102"/>
      <point x="213" y="905"/>
      <point x="189" y="586" type="curve"/>
      <point x="189" y="474" type="line"/>
      <point x="214" y="170"/>
      <point x="332" y="-20"/>
      <point x="569" y="-20" type="curve" smooth="yes"/>
      <point x="796" y="-20"/>
      <point x="924" y="213"/>
      <point x="924" y="529" type="curve" smooth="yes"/>
    </contour>
    <contour>
      <point x="747" y="529" type="line"/>
      <point x="747" y="314"/>
      <point x="676" y="132"/>
      <point x="514" y="132" type="curve" smooth="yes"/>
      <point x="367" y="132"/>
      <point x="307" y="259"/>
      <point x="273" y="400" type="curve"/>
      <point x="273" y="659" type="line"/>
      <point x="298" y="806"/>
      <point x="370" y="946"/>
      <point x="512" y="946" type="curve" smooth="yes"/>
      <point x="676" y="946"/>
      <point x="747" y="765"/>
      <point x="747" y="550" type="curve" smooth="yes"/>
    </contour>
  </outline>
</glyph>
<glyph name="OI" format="2">
  <advance width="1520"/>
  <unicode hex="01A2"/>
  <outline>
    <contour>
      <point x="1065" y="739" type="line" name="hr00"/>
      <point x="890" y="739" type="line"/>
      <point x="890" y="245" type="line"/>
      <point x="857" y="201"/>
      <point x="806" y="137"/>
      <point x="641" y="137" type="curve" smooth="yes"/>
      <point x="412" y="137"/>
      <point x="298" y="352"/>
      <point x="298" y="672" type="curve" smooth="yes"/>
      <point x="298" y="774" type="line"/>
      <point x="117" y="772" type="line"/>
      <point x="117" y="672" type="line" smooth="yes"/>
      <point x="117" y="224"/>
      <point x="335" y="-20"/>
      <point x="633" y="-20" type="curve" smooth="yes"/>
      <point x="915" y="-20"/>
      <point x="1018" y="114"/>
      <point x="1065" y="193" type="curve"/>
    </contour>
    <contour>
      <point x="1065" y="1263" type="line"/>
      <point x="1018" y="1342"/>
      <point x="915" y="1476"/>
      <point x="633" y="1476" type="curve" smooth="yes"/>
      <point x="333" y="1476"/>
      <point x="117" y="1219"/>
      <point x="117" y="784" type="curve" smooth="yes"/>
      <point x="117" y="693" type="line"/>
      <point x="298" y="691" type="line"/>
      <point x="298" y="784" type="line" smooth="yes"/>
      <point x="298" y="1123"/>
      <point x="432" y="1319"/>
      <point x="633" y="1319" type="curve" smooth="yes"/>
      <point x="806" y="1319"/>
      <point x="857" y="1255"/>
      <point x="890" y="1211" type="curve"/>
      <point x="890" y="699" type="line"/>
      <point x="1065" y="699" type="line"/>
    </contour>
    <contour>
      <point x="1360" y="1456" type="line"/>
      <point x="1224" y="1456" type="line"/>
      <point x="984" y="1341" type="line"/>
      <point x="984" y="1180" type="line"/>
      <point x="1183" y="1270" type="line"/>
      <point x="1183" y="-416" type="line"/>
      <point x="1360" y="-416" type="line"/>
    </contour>
  </outline>
</glyph>
<glyph name="Yhook" format="2">
  <advance width="1173"/>
  <unicode hex="01B3"/>
  <outline>
    <contour>
      <point x="462" y="580" type="line"/>
      <point x="500" y="507" type="line"/>
      <point x="610" y="507" type="line"/>
      <point x="842" y="1041" type="line" smooth="yes"/>
      <point x="928" y="1220"/>
      <point x="945" y="1301"/>
      <point x="1018" y="1301" type="curve" smooth="yes"/>
      <point x="1056" y="1301"/>
      <point x="1081" y="1285"/>
      <point x="1103" y="1265" type="curve"/>
      <point x="1164" y="1397" type="line"/>
      <point x="1118" y="1444"/>
      <point x="1056" y="1476"/>
      <point x="986" y="1476" type="curve" smooth="yes"/>
      <point x="847" y="1476"/>
      <point x="788" y="1347"/>
      <point x="687" y="1123" type="curve" smooth="yes"/>
    </contour>
    <contour>
      <point x="239" y="1456" type="line"/>
      <point x="30" y="1456" type="line"/>
      <point x="464" y="507" type="line"/>
      <point x="567" y="507" type="line"/>
      <point x="612" y="577" type="line"/>
    </contour>
    <contour>
      <point x="628" y="676" type="line"/>
      <point x="444" y="676" type="line"/>
      <point x="444" y="0" type="line"/>
      <point x="628" y="0" type="line"/>
    </contour>
  </outline>
</glyph>
<glyph name="bhook" format="2">
  <advance width="1010"/>
  <unicode hex="0253"/>
  <anchor x="551" y="1700" name="top"/>
  <anchor x="525" y="0" name="bottom"/>
  <anchor x="992" y="1700" name="top0315"/>
  <anchor x="551" y="1700" name="parent_top"/>
  <outline>
    <contour>
      <point x="310" y="1120" type="line"/>
      <point x="310" y="1260" type="line" smooth="yes"/>
      <point x="310" y="1381"/>
      <point x="359" y="1427"/>
      <point x="433" y="1427" type="curve" smooth="yes"/>
      <point x="445" y="1427"/>
      <point x="463" y="1424"/>
      <point x="477" y="1419" type="curve"/>
      <point x="476" y="1546" type="line"/>
      <point x="454" y="1556"/>
      <point x="417" y="1562"/>
      <point x="394" y="1562" type="curve" smooth="yes"/>
      <point x="257" y="1562"/>
      <point x="133" y="1454"/>
      <point x="133" y="1260" type="curve" smooth="yes"/>
      <point x="133" y="1120" type="line"/>
    </contour>
    <contour>
      <point x="133" y="1163" type="line"/>
      <point x="133" y="0" type="line"/>
      <point x="295" y="0" type="line"/>
      <point x="310" y="210" type="line"/>
      <point x="310" y="1163" type="line"/>
    </contour>
    <contour>
      <point x="917" y="590" type="line"/>
      <point x="917" y="946"/>
      <point x="790" y="1102"/>
      <point x="560" y="1102" type="curve" smooth="yes"/>
      <point x="336" y="1102"/>
      <point x="240" y="914"/>
      <point x="217" y="607" type="curve"/>
      <point x="217" y="472" type="line"/>
      <point x="241" y="168"/>
      <point x="337" y="-20"/>
      <point x="561" y="-20" type="curve" smooth="yes"/>
      <point x="788" y="-20"/>
      <point x="917" y="147"/>
      <point x="917" y="489" type="curve" smooth="yes"/>
    </contour>
    <contour>
      <point x="740" y="489" type="line"/>
      <point x="740" y="248"/>
      <point x="677" y="137"/>
      <point x="515" y="137" type="curve" smooth="yes"/>
      <point x="368" y="137"/>
      <point x="300" y="267"/>
      <point x="274" y="397" type="curve"/>
      <point x="274" y="681" type="line"/>
      <point x="299" y="818"/>
      <point x="371" y="946"/>
      <point x="514" y="946" type="curve" smooth="yes"/>
      <point x="685" y="946"/>
      <point x="740" y="830"/>
      <point x="740" y="590" type="curve" smooth="yes"/>
    </contour>
  </outline>
</glyph>
<glyph name="rturn" format="2">
  <advance width="624"/>
  <unicode hex="0279"/>
  <anchor x="215" y="1290" name="top"/>
  <anchor x="215" y="0" name="bottom"/>
  <anchor x="604" y="1290" name="top0315"/>
  <anchor x="215" y="1290" name="parent_top"/>
  <outline>
    <contour>
      <point x="115" y="-20" type="curve" smooth="yes"/>
      <point x="306" y="-20"/>
      <point x="387" y="198"/>
      <point x="387" y="458" type="curve"/>
      <point x="341" y="428" type="line"/>
      <point x="325" y="271"/>
      <point x="257" y="158"/>
      <point x="124" y="158" type="curve" smooth="yes"/>
      <point x="93" y="158"/>
      <point x="73" y="160"/>
      <point x="45" y="166" type="curve"/>
      <point x="45" y="-6" type="line"/>
      <point x="56" y="-12"/>
      <point x="95" y="-20"/>
    </contour>
    <contour>
      <point x="315" y="170" type="line"/>
      <point x="320" y="0" type="line"/>
      <point x="491" y="0" type="line"/>
      <point x="491" y="1082" type="line"/>
      <point x="315" y="1082" type="line"/>
    </contour>
  </outline>
</glyph>
<glyph name="uni02AB" format="2">
  <advance width="1129"/>
  <unicode hex="02AB"/>
  <anchor x="676" y="1600" name="top"/>
  <anchor x="676" y="0" name="bottom"/>
  <anchor x="1109" y="1600" name="top0315"/>
  <anchor x="676" y="1600" name="parent_top"/>
  <outline>
    <contour>
      <point x="1048" y="152" type="line"/>
      <point x="331" y="152" type="line"/>
      <point x="331" y="0" type="line"/>
      <point x="1048" y="0" type="line"/>
    </contour>
    <contour>
      <point x="1028" y="951" type="line"/>
      <point x="1028" y="1082" type="line"/>
      <point x="923" y="1082" type="line"/>
      <point x="262" y="117" type="line"/>
      <point x="262" y="0" type="line"/>
      <point x="379" y="0" type="line"/>
    </contour>
    <contour>
      <point x="950" y="1082" type="line"/>
      <point x="295" y="1082" type="line"/>
      <point x="295" y="929" type="line"/>
      <point x="950" y="929" type="line"/>
    </contour>
    <contour>
      <point x="323" y="1536" type="line"/>
      <point x="147" y="1536" type="line"/>
      <point x="147" y="0" type="line"/>
      <point x="323" y="0" type="line"/>
    </contour>
  </outline>
</glyph>
<glyph name="uni02AE" format="2">
  <advance width="1118"/>
  <unicode hex="02AE"/>
  <anchor x="576" y="1290" name="top"/>
  <anchor x="576" y="-447" name="bottom"/>
  <anchor x="1098" y="1290" name="top0315"/>
  <anchor x="576" y="1290" name="parent_top"/>
  <outline>
    <contour>
      <point x="792" y="-416" type="line" name="hr00"/>
      <point x="969" y="-416" type="line"/>
      <point x="969" y="1082" type="line"/>
      <point x="792" y="1082" type="line"/>
    </contour>
    <contour>
      <point x="807" y="499" type="line"/>
      <point x="808" y="303"/>
      <point x="747" y="137"/>
      <point x="570" y="137" type="curve" smooth="yes"/>
      <point x="497" y="137"/>
      <point x="419" y="197"/>
      <point x="419" y="439" type="curve" smooth="yes"/>
      <point x="419" y="686" type="line"/>
      <point x="242" y="686" type="line"/>
      <point x="242" y="441" type="line" smooth="yes"/>
      <point x="242" y="113"/>
      <point x="363" y="-20"/>
      <point x="541" y="-20" type="curve" smooth="yes"/>
      <point x="795" y="-20"/>
      <point x="889" y="200"/>
      <point x="887" y="496" type="curve"/>
    </contour>
    <contour>
      <point x="419" y="591" type="line"/>
      <point x="419" y="753" type="line" smooth="yes"/>
      <point x="419" y="978"/>
      <point x="304" y="1101"/>
      <point x="143" y="1101" type="curve" smooth="yes"/>
      <point x="115" y="1101"/>
      <point x="71" y="1094"/>
      <point x="45" y="1084" type="curve"/>
      <point x="44" y="935" type="line"/>
      <point x="61" y="941"/>
      <point x="83" y="944"/>
      <point x="96" y="944" type="curve" smooth="yes"/>
      <point x="184" y="944"/>
      <point x="242" y="893"/>
      <point x="242" y="753" type="curve" smooth="yes"/>
      <point x="242" y="591" type="line"/>
    </contour>
  </outline>
</glyph>
<glyph name="uni02E9" format="2">
  <advance width="602"/>
  <unicode hex="02E9"/>
  <outline>
    <contour>
      <point x="441" y="1456" type="line"/>
      <point x="264" y="1456" type="line"/>
      <point x="264" y="0" type="line"/>
      <point x="441" y="0" type="line"/>
    </contour>
    <contour>
      <point x="396" y="152" type="line"/>
      <point x="54" y="152" type="line"/>
      <point x="54" y="0" type="line"/>
      <point x="396" y="0" type="line"/>
    </contour>
  </outline>
</glyph>
<glyph name="uni02EB" format="2">
  <advance width="605"/>
  <unicode hex="02EB"/>
  <guideline x="0.0" y="454.0" angle="0.0" identifier="D6aP7FYkaN"/>
  <outline>
    <contour>
      <point x="552" y="534" type="line"/>
      <point x="235" y="534" type="line"/>
      <point x="235" y="383" type="line"/>
      <point x="552" y="383" type="line"/>
    </contour>
    <contour>
      <point x="308" y="908" type="line"/>
      <point x="131" y="908" type="line"/>
      <point x="131" y="0" type="line"/>
      <point x="308" y="0" type="line"/>
    </contour>
  </outline>
</glyph>
<glyph name="uni02FC" format="2">
  <advance width="509"/>
  <unicode hex="02FC"/>
  <outline>
    <contour>
      <point x="422" y="-474" type="line"/>
      <point x="422" y="-341" type="line"/>
      <point x="87" y="-341" type="line"/>
      <point x="87" y="-474" type="line"/>
    </contour>
    <contour>
      <point x="290" y="-474" type="line"/>
      <point x="422" y="-474" type="line"/>
      <point x="422" y="-88" type="line"/>
      <point x="290" y="-88" type="line"/>
    </contour>
  </outline>
</glyph>
<glyph name="brevenosp" format="2">
  <unicode hex="0306"/>
  <anchor x="-479" y="1194" name="_top"/>
  <anchor x="-479" y="1597" name="top"/>
  <anchor x="-475" y="1361" name="parent_top"/>
  <outline>
    <contour>
      <point x="-363" y="1495" type="line"/>
      <point x="-363" y="1416"/>
      <point x="-394" y="1346"/>
      <point x="-475" y="1346" type="curve" smooth="yes"/>
      <point x="-558" y="1346"/>
      <point x="-589" y="1416"/>
      <point x="-589" y="1495" type="curve"/>
      <point x="-731" y="1495" type="line"/>
      <point x="-731" y="1338"/>
      <point x="-632" y="1228"/>
      <point x="-475" y="1228" type="curve" smooth="yes"/>
      <point x="-319" y="1228"/>
      <point x="-221" y="1338"/>
      <point x="-221" y="1495" type="curve"/>
    </contour>
  </outline>
</glyph>
<glyph name="Delta" format="2">
  <advance width="1207"/>
  <unicode hex="0394"/>
  <outline>
    <contour>
      <point x="66" y="0" type="line"/>
      <point x="1142" y="0" type="line"/>
      <point x="1142" y="89" type="line"/>
      <point x="683" y="1456" type="line"/>
      <point x="525" y="1456" type="line"/>
      <point x="66" y="89" type="line"/>
    </contour>
    <contour>
      <point x="274" y="158" type="line"/>
      <point x="604" y="1206" type="line"/>
      <point x="934" y="158" type="line"/>
    </contour>
  </outline>
</glyph>
<glyph name="Theta" format="2">
  <advance width="1261"/>
  <unicode hex="0398"/>
  <outline>
    <contour>
      <point x="629" y="-20" type="curve" smooth="yes"/>
      <point x="933" y="-20"/>
      <point x="1134" y="183"/>
      <point x="1134" y="682" type="curve" smooth="yes"/>
      <point x="1134" y="774" type="line" smooth="yes"/>
      <point x="1134" y="1273"/>
      <point x="933" y="1476"/>
      <point x="629" y="1476" type="curve" smooth="yes"/>
      <point x="326" y="1476"/>
      <point x="126" y="1273"/>
      <point x="126" y="774" type="curve" smooth="yes"/>
      <point x="126" y="682" type="line" smooth="yes"/>
      <point x="126" y="183"/>
      <point x="326" y="-20"/>
    </contour>
    <contour>
      <point x="629" y="143" type="curve" smooth="yes"/>
      <point x="425" y="143"/>
      <point x="304" y="304"/>
      <point x="304" y="650" type="curve" smooth="yes"/>
      <point x="304" y="807" type="line" smooth="yes"/>
      <point x="304" y="1153"/>
      <point x="425" y="1312"/>
      <point x="629" y="1312" type="curve" smooth="yes"/>
      <point x="833" y="1312"/>
      <point x="952" y="1153"/>
      <point x="952" y="807" type="curve" smooth="yes"/>
      <point x="952" y="650" type="line" smooth="yes"/>
      <point x="952" y="304"/>
      <point x="833" y="143"/>
    </contour>
    <contour>
      <point x="404" y="659" type="line"/>
      <point x="853" y="659" type="line"/>
      <point x="853" y="827" type="line"/>
      <point x="404" y="827" type="line"/>
    </contour>
  </outline>
</glyph>
<glyph name="Lambda" format="2">
  <advance width="1141"/>
  <unicode hex="039B"/>
  <outline>
    <contour>
      <point x="43" y="0" type="line"/>
      <point x="231" y="0" type="line"/>
      <point x="571" y="1194" type="line"/>
      <point x="911" y="0" type="line"/>
      <point x="1099" y="0" type="line"/>
      <point x="650" y="1456" type="line"/>
      <point x="492" y="1456" type="line"/>
    </contour>
  </outline>
</glyph>
<glyph name="Sigma" format="2">
  <advance width="1071"/>
  <unicode hex="03A3"/>
  <outline>
    <contour>
      <point x="92" y="0" type="line"/>
      <point x="985" y="0" type="line"/>
      <point x="985" y="157" type="line"/>
      <point x="290" y="157" type="line"/>
      <point x="289" y="135" type="line"/>
      <point x="627" y="727" type="line"/>
      <point x="627" y="756" type="line"/>
      <point x="303" y="1322" type="line"/>
      <point x="282" y="1298" type="line"/>
      <point x="969" y="1298" type="line"/>
      <point x="969" y="1456" type="line"/>
      <point x="108" y="1456" type="line"/>
      <point x="108" y="1309" type="line"/>
      <point x="455" y="702" type="line"/>
      <point x="444" y="748" type="line"/>
      <point x="92" y="125" type="line"/>
    </contour>
  </outline>
</glyph>
<glyph name="Phi" format="2">
  <advance width="1521"/>
  <unicode hex="03A6"/>
  <outline>
    <contour>
      <point x="668" y="-20" type="line"/>
      <point x="852" y="-20" type="line"/>
      <point x="852" y="194" type="line"/>
      <point x="859" y="194" type="line" smooth="yes"/>
      <point x="1196" y="194"/>
      <point x="1394" y="399"/>
      <point x="1394" y="738" type="curve" smooth="yes"/>
      <point x="1394" y="1077"/>
      <point x="1196" y="1283"/>
      <point x="859" y="1283" type="curve" smooth="yes"/>
      <point x="852" y="1283" type="line"/>
      <point x="852" y="1476" type="line"/>
      <point x="668" y="1476" type="line"/>
      <point x="668" y="1283" type="line"/>
      <point x="661" y="1283" type="line" smooth="yes"/>
      <point x="325" y="1283"/>
      <point x="126" y="1078"/>
      <point x="126" y="739" type="curve" smooth="yes"/>
      <point x="126" y="400"/>
      <point x="325" y="194"/>
      <point x="661" y="194" type="curve" smooth="yes"/>
      <point x="668" y="194" type="line"/>
    </contour>
    <contour>
      <point x="668" y="345" type="line"/>
      <point x="661" y="345" type="line" smooth="yes"/>
      <point x="418" y="345"/>
      <point x="308" y="488"/>
      <point x="308" y="741" type="curve" smooth="yes"/>
      <point x="308" y="997"/>
      <point x="418" y="1132"/>
      <point x="661" y="1132" type="curve" smooth="yes"/>
      <point x="668" y="1132" type="line"/>
    </contour>
    <contour>
      <point x="852" y="345" type="line"/>
      <point x="852" y="1132" type="line"/>
      <point x="859" y="1132" type="line" smooth="yes"/>
      <point x="1102" y="1132"/>
      <point x="1212" y="989"/>
      <point x="1212" y="736" type="curve" smooth="yes"/>
      <point x="1212" y="480"/>
      <point x="1102" y="345"/>
      <point x="859" y="345" type="curve" smooth="yes"/>
    </contour>
  </outline>
</glyph>
<glyph name="Psi" format="2">
  <advance width="1451"/>
  <unicode hex="03A8"/>
  <outline>
    <contour>
      <point x="637" y="0" type="line"/>
      <point x="820" y="0" type="line"/>
      <point x="820" y="1456" type="line"/>
      <point x="637" y="1456" type="line"/>
    </contour>
    <contour>
      <point x="697" y="361" type="line"/>
      <point x="697" y="518" type="line"/>
      <point x="681" y="518" type="line" smooth="yes"/>
      <point x="449" y="518"/>
      <point x="313" y="579"/>
      <point x="313" y="926" type="curve" smooth="yes"/>
      <point x="313" y="1456" type="line"/>
      <point x="130" y="1456" type="line"/>
      <point x="130" y="928" type="line" smooth="yes"/>
      <point x="130" y="535"/>
      <point x="302" y="361"/>
      <point x="670" y="361" type="curve" smooth="yes"/>
    </contour>
    <contour>
      <point x="759" y="361" type="line"/>
      <point x="786" y="361" type="line" smooth="yes"/>
      <point x="1154" y="361"/>
      <point x="1327" y="535"/>
      <point x="1327" y="928" type="curve" smooth="yes"/>
      <point x="1327" y="1456" type="line"/>
      <point x="1144" y="1456" type="line"/>
      <point x="1144" y="926" type="line" smooth="yes"/>
      <point x="1144" y="579"/>
      <point x="1008" y="518"/>
      <point x="775" y="518" type="curve" smooth="yes"/>
      <point x="759" y="518" type="line"/>
    </contour>
  </outline>
</glyph>
<glyph name="beta" format="2">
  <advance width="1016"/>
  <unicode hex="03B2"/>
  <outline>
    <contour>
      <point x="133" y="-416" type="line"/>
      <point x="310" y="-416" type="line"/>
      <point x="310" y="101" type="line"/>
      <point x="366" y="16"/>
      <point x="446" y="-20"/>
      <point x="566" y="-20" type="curve" smooth="yes"/>
      <point x="783" y="-20"/>
      <point x="921" y="172"/>
      <point x="921" y="467" type="curve" smooth="yes"/>
      <point x="921" y="677"/>
      <point x="828" y="818"/>
      <point x="642" y="854" type="curve"/>
      <point x="642" y="828" type="line"/>
      <point x="796" y="886"/>
      <point x="848" y="1028"/>
      <point x="848" y="1163" type="curve" smooth="yes"/>
      <point x="848" y="1417"/>
      <point x="718" y="1557"/>
      <point x="502" y="1557" type="curve" smooth="yes"/>
      <point x="283" y="1557"/>
      <point x="133" y="1417"/>
      <point x="133" y="1078" type="curve" smooth="yes"/>
    </contour>
    <contour>
      <point x="516" y="131" type="curve" smooth="yes"/>
      <point x="434" y="131"/>
      <point x="354" y="177"/>
      <point x="310" y="274" type="curve"/>
      <point x="310" y="1097" type="line" smooth="yes"/>
      <point x="310" y="1325"/>
      <point x="376" y="1408"/>
      <point x="499" y="1408" type="curve" smooth="yes"/>
      <point x="613" y="1408"/>
      <point x="676" y="1329"/>
      <point x="676" y="1162" type="curve" smooth="yes"/>
      <point x="676" y="1022"/>
      <point x="637" y="906"/>
      <point x="482" y="906" type="curve" smooth="yes"/>
      <point x="405" y="906" type="line"/>
      <point x="405" y="749" type="line"/>
      <point x="481" y="749" type="line" smooth="yes"/>
      <point x="686" y="749"/>
      <point x="744" y="649"/>
      <point x="744" y="452" type="curve" smooth="yes"/>
      <point x="744" y="221"/>
      <point x="642" y="131"/>
    </contour>
  </outline>
</glyph>
<glyph name="gamma" format="2">
  <advance width="876"/>
  <unicode hex="03B3"/>
  <outline>
    <contour>
      <point x="356" y="-366" type="line"/>
      <point x="519" y="-366" type="line"/>
      <point x="519" y="51" type="line"/>
      <point x="825" y="1082" type="line"/>
      <point x="645" y="1082" type="line"/>
      <point x="439" y="270" type="line"/>
      <point x="226" y="1082" type="line"/>
      <point x="46" y="1082" type="line"/>
      <point x="356" y="51" type="line"/>
    </contour>
  </outline>
</glyph>
<glyph name="theta" format="2">
  <advance width="987"/>
  <unicode hex="03B8"/>
  <outline>
    <contour>
      <point x="495" y="-20.0" type="curve" smooth="yes"/>
      <point x="738" y="-20.0"/>
      <point x="893" y="117"/>
      <point x="893" y="613" type="curve" smooth="yes"/>
      <point x="893" y="923" type="line" smooth="yes"/>
      <point x="893.0" y="1406.0"/>
      <point x="736" y="1557.0"/>
      <point x="493" y="1557.0" type="curve" smooth="yes"/>
      <point x="254" y="1557.0"/>
      <point x="95" y="1406.0"/>
      <point x="95.0" y="923" type="curve" smooth="yes"/>
      <point x="95.0" y="613" type="line" smooth="yes"/>
      <point x="95" y="117"/>
      <point x="255" y="-20.0"/>
    </contour>
    <contour>
      <point x="495" y="132" type="curve" smooth="yes"/>
      <point x="365" y="132"/>
      <point x="273" y="203"/>
      <point x="273" y="592" type="curve" smooth="yes"/>
      <point x="273" y="938" type="line" smooth="yes"/>
      <point x="273" y="1318"/>
      <point x="349" y="1405"/>
      <point x="493" y="1405" type="curve" smooth="yes"/>
      <point x="641" y="1405"/>
      <point x="716" y="1318"/>
      <point x="716" y="938" type="curve" smooth="yes"/>
      <point x="716" y="592" type="line"/>
      <point x="716" y="203"/>
      <point x="629" y="132"/>
    </contour>
    <contour>
      <point x="168.0" y="702" type="line"/>
      <point x="779" y="702" type="line"/>
      <point x="779" y="855" type="line"/>
      <point x="168.0" y="855" type="line"/>
    </contour>
  </outline>
</glyph>
<glyph name="kappa" format="2">
  <advance width="912"/>
  <unicode hex="03BA"/>
  <outline>
    <contour>
      <point x="134" y="0" type="line"/>
      <point x="311" y="0" type="line"/>
      <point x="311" y="480" type="line"/>
      <point x="378" y="480" type="line"/>
      <point x="695" y="0" type="line"/>
      <point x="893" y="0" type="line"/>
      <point x="520" y="562" type="line"/>
      <point x="855" y="1082" type="line"/>
      <point x="669" y="1082" type="line"/>
      <point x="379" y="626" type="line"/>
      <point x="311" y="626" type="line"/>
      <point x="311" y="1082" type="line"/>
      <point x="134" y="1082" type="line"/>
    </contour>
  </outline>
</glyph>
<glyph name="lambda" format="2">
  <advance width="903"/>
  <unicode hex="03BB"/>
  <outline>
    <contour>
      <point x="35" y="0" type="line"/>
      <point x="215" y="0" type="line"/>
      <point x="459" y="850" type="line"/>
      <point x="683" y="0" type="line"/>
      <point x="863" y="0" type="line"/>
      <point x="488" y="1252" type="line" smooth="yes"/>
      <point x="424" y="1467"/>
      <point x="347" y="1557"/>
      <point x="177" y="1557" type="curve" smooth="yes"/>
      <point x="123" y="1557"/>
      <point x="88" y="1548"/>
      <point x="61" y="1537" type="curve"/>
      <point x="69" y="1384" type="line"/>
      <point x="98" y="1395"/>
      <point x="118" y="1399"/>
      <point x="153" y="1399" type="curve" smooth="yes"/>
      <point x="239" y="1399"/>
      <point x="301" y="1337"/>
      <point x="363" y="1133" type="curve" smooth="yes"/>
      <point x="382" y="1071" type="line"/>
    </contour>
  </outline>
</glyph>
<glyph name="rho" format="2">
  <advance width="1021"/>
  <unicode hex="03C1"/>
  <anchor x="521" y="1281" name="top"/>
  <anchor x="1001" y="1281" name="top0315"/>
  <anchor x="521" y="1281" name="parent_top"/>
  <outline>
    <contour>
      <point x="138" y="-416" type="line"/>
      <point x="315" y="-416" type="line"/>
      <point x="315" y="577" type="line" smooth="yes"/>
      <point x="315" y="740"/>
      <point x="375" y="950"/>
      <point x="517" y="950" type="curve" smooth="yes"/>
      <point x="681" y="950"/>
      <point x="739" y="754"/>
      <point x="739" y="522" type="curve" smooth="yes"/>
      <point x="739" y="501" type="line" smooth="yes"/>
      <point x="739" y="296"/>
      <point x="672" y="132"/>
      <point x="510" y="132" type="curve" smooth="yes"/>
      <point x="363" y="132"/>
      <point x="303" y="259"/>
      <point x="270" y="400" type="curve"/>
      <point x="270" y="400"/>
      <point x="188" y="472"/>
      <point x="185" y="474" type="curve"/>
      <point x="209" y="168"/>
      <point x="328" y="-20"/>
      <point x="566" y="-20" type="curve" smooth="yes"/>
      <point x="793" y="-20"/>
      <point x="916" y="196"/>
      <point x="916" y="501" type="curve" smooth="yes"/>
      <point x="916" y="522" type="line" smooth="yes"/>
      <point x="916" y="863"/>
      <point x="785" y="1102"/>
      <point x="517" y="1102" type="curve" smooth="yes"/>
      <point x="313" y="1102"/>
      <point x="138" y="922"/>
      <point x="138" y="579" type="curve" smooth="yes"/>
    </contour>
  </outline>
</glyph>
<glyph name="finalsigma" format="2">
  <advance width="944"/>
  <unicode hex="03C2"/>
  <outline>
    <contour>
      <point x="541" y="-348" type="curve"/>
      <point x="691" y="-348" type="line"/>
      <point x="726" y="-254"/>
      <point x="745" y="-169"/>
      <point x="745" y="-84" type="curve" smooth="yes"/>
      <point x="745" y="39"/>
      <point x="675" y="90"/>
      <point x="522" y="148" type="curve" smooth="yes"/>
      <point x="454" y="174" type="line" smooth="yes"/>
      <point x="322" y="224"/>
      <point x="274" y="290"/>
      <point x="274" y="495" type="curve" smooth="yes"/>
      <point x="274" y="563" type="line" smooth="yes"/>
      <point x="274" y="849"/>
      <point x="347" y="950"/>
      <point x="506" y="950" type="curve" smooth="yes"/>
      <point x="653" y="950"/>
      <point x="705" y="840"/>
      <point x="705" y="740" type="curve" smooth="yes"/>
      <point x="705" y="731" type="line"/>
      <point x="872" y="731" type="line"/>
      <point x="872" y="739" type="line" smooth="yes"/>
      <point x="872" y="937"/>
      <point x="745" y="1102"/>
      <point x="508" y="1102" type="curve" smooth="yes"/>
      <point x="252" y="1102"/>
      <point x="97" y="937"/>
      <point x="97" y="574" type="curve" smooth="yes"/>
      <point x="97" y="497" type="line" smooth="yes"/>
      <point x="97" y="168"/>
      <point x="201" y="91"/>
      <point x="381" y="19" type="curve" smooth="yes"/>
      <point x="448" y="-8" type="line" smooth="yes"/>
      <point x="539" y="-45"/>
      <point x="578" y="-79"/>
      <point x="578" y="-147" type="curve" smooth="yes"/>
      <point x="578" y="-208"/>
      <point x="569" y="-259"/>
    </contour>
  </outline>
</glyph>
<glyph name="tau" format="2">
  <advance width="746"/>
  <unicode hex="03C4"/>
  <outline>
    <contour>
      <point x="33" y="940" type="line"/>
      <point x="678" y="940" type="line"/>
      <point x="678" y="1082" type="line"/>
      <point x="33" y="1082" type="line"/>
    </contour>
    <contour>
      <point x="473" y="-20" type="curve" smooth="yes"/>
      <point x="534" y="-20"/>
      <point x="573" y="-9"/>
      <point x="597" y="0" type="curve"/>
      <point x="598" y="151" type="line"/>
      <point x="587" y="147"/>
      <point x="552" y="139"/>
      <point x="528" y="139" type="curve" smooth="yes"/>
      <point x="480" y="139"/>
      <point x="435" y="157"/>
      <point x="435" y="268" type="curve"/>
      <point x="435" y="1011" type="line"/>
      <point x="258" y="1011" type="line"/>
      <point x="258" y="269" type="line"/>
      <point x="258" y="52"/>
      <point x="358" y="-20"/>
    </contour>
  </outline>
</glyph>
<glyph name="upsilon" format="2">
  <advance width="974"/>
  <unicode hex="03C5"/>
  <anchor x="487.0" y="1082" name="GRK_top"/>
  <outline>
    <contour>
      <point x="487.0" y="-20" type="curve" smooth="yes"/>
      <point x="742.0" y="-20"/>
      <point x="844.0" y="111"/>
      <point x="844.0" y="382" type="curve" smooth="yes"/>
      <point x="844.0" y="1082" type="line"/>
      <point x="668.0" y="1082" type="line"/>
      <point x="668.0" y="376" type="line" smooth="yes"/>
      <point x="668.0" y="205"/>
      <point x="611.0" y="137"/>
      <point x="487.0" y="137" type="curve" smooth="yes"/>
      <point x="363.0" y="137"/>
      <point x="306.0" y="205"/>
      <point x="306.0" y="376" type="curve" smooth="yes"/>
      <point x="306.0" y="1082" type="line"/>
      <point x="130.0" y="1082" type="line"/>
      <point x="130.0" y="382" type="line" smooth="yes"/>
      <point x="130.0" y="111"/>
      <point x="233.0" y="-20"/>
    </contour>
  </outline>
</glyph>
<glyph name="phi" format="2">
  <advance width="1261"/>
  <unicode hex="03C6"/>
  <outline>
    <contour>
      <point x="543" y="-416" type="line"/>
      <point x="719" y="-416" type="line"/>
      <point x="719" y="-20" type="line"/>
      <point x="993" y="-17"/>
      <point x="1166" y="148"/>
      <point x="1166" y="501" type="curve" smooth="yes"/>
      <point x="1166" y="568" type="line" smooth="yes"/>
      <point x="1166" y="924"/>
      <point x="993" y="1099"/>
      <point x="719" y="1102" type="curve"/>
      <point x="719" y="1536" type="line"/>
      <point x="543" y="1536" type="line"/>
      <point x="543" y="1102" type="line"/>
      <point x="268" y="1099"/>
      <point x="96" y="924"/>
      <point x="96" y="568" type="curve" smooth="yes"/>
      <point x="96" y="501" type="line" smooth="yes"/>
      <point x="96" y="148"/>
      <point x="268" y="-17"/>
      <point x="543" y="-20" type="curve"/>
    </contour>
    <contour>
      <point x="543" y="128" type="line"/>
      <point x="365" y="131"/>
      <point x="272" y="262"/>
      <point x="272" y="489" type="curve" smooth="yes"/>
      <point x="272" y="580" type="line" smooth="yes"/>
      <point x="272" y="810"/>
      <point x="353" y="950"/>
      <point x="543" y="954" type="curve"/>
    </contour>
    <contour>
      <point x="719" y="128" type="curve"/>
      <point x="719" y="954" type="line"/>
      <point x="897" y="950"/>
      <point x="990" y="810"/>
      <point x="990" y="580" type="curve" smooth="yes"/>
      <point x="990" y="489" type="line" smooth="yes"/>
      <point x="990" y="262"/>
      <point x="908" y="131"/>
    </contour>
  </outline>
</glyph>
<glyph name="psi" format="2">
  <advance width="1365"/>
  <unicode hex="03C8"/>
  <outline>
    <contour>
      <point x="595" y="-416" type="line"/>
      <point x="770" y="-416" type="line"/>
      <point x="770" y="-20" type="line"/>
      <point x="1053" y="-17"/>
      <point x="1235" y="154"/>
      <point x="1235" y="480" type="curve" smooth="yes"/>
      <point x="1235" y="1082" type="line"/>
      <point x="1060" y="1082" type="line"/>
      <point x="1060" y="490" type="line" smooth="yes"/>
      <point x="1060" y="265"/>
      <point x="961" y="140"/>
      <point x="770" y="137" type="curve"/>
      <point x="770" y="1536" type="line"/>
      <point x="595" y="1536" type="line"/>
      <point x="595" y="137" type="line"/>
      <point x="405" y="140"/>
      <point x="306" y="265"/>
      <point x="305" y="490" type="curve" smooth="yes"/>
      <point x="305" y="1082" type="line"/>
      <point x="130" y="1082" type="line"/>
      <point x="130" y="480" type="line" smooth="yes"/>
      <point x="130" y="154"/>
      <point x="313" y="-17"/>
      <point x="595" y="-20" type="curve"/>
    </contour>
  </outline>
</glyph>
<glyph name="uni03F6" format="2">
  <advance width="820"/>
  <unicode hex="03F6"/>
  <outline>
    <contour>
      <point x="53" y="152" type="line"/>
      <point x="53" y="0" type="line"/>
      <point x="311" y="0" type="line" smooth="yes"/>
      <point x="592" y="0"/>
      <point x="722" y="230"/>
      <point x="722" y="520" type="curve" smooth="yes"/>
      <point x="722" y="562" type="line" smooth="yes"/>
      <point x="722" y="852"/>
      <point x="591" y="1083"/>
      <point x="310" y="1082" type="curve" smooth="yes"/>
      <point x="54" y="1082" type="line"/>
      <point x="54" y="930" type="line"/>
      <point x="310" y="930" type="line" smooth="yes"/>
      <point x="496" y="930"/>
      <point x="545" y="750"/>
      <point x="545" y="562" type="curve" smooth="yes"/>
      <point x="545" y="520" type="line" smooth="yes"/>
      <point x="545" y="330"/>
      <point x="499" y="152"/>
      <point x="311" y="152" type="curve" smooth="yes"/>
    </contour>
    <contour>
      <point x="223" y="464" type="line"/>
      <point x="682" y="464" type="line"/>
      <point x="682" y="616" type="line"/>
      <point x="223" y="616" type="line"/>
    </contour>
  </outline>
</glyph>
<glyph name="uni0442" format="2">
  <advance width="871"/>
  <unicode hex="0442"/>
  <anchor x="432" y="1269" name="top"/>
  <anchor x="851" y="1269" name="top0315"/>
  <anchor x="432" y="1269" name="parent_top"/>
  <outline>
    <contour>
      <point x="522" y="1082" type="line"/>
      <point x="345" y="1082" type="line"/>
      <point x="345" y="0" type="line"/>
      <point x="522" y="0" type="line"/>
    </contour>
    <contour>
      <point x="817" y="1082" type="line"/>
      <point x="54" y="1082" type="line"/>
      <point x="54" y="932" type="line"/>
      <point x="817" y="932" type="line"/>
    </contour>
  </outline>
</glyph>
<glyph name="uni04B8" format="2">
  <advance width="1220"/>
  <unicode hex="04B8"/>
  <outline>
    <contour>
      <point x="697" y="1019" type="line"/>
      <point x="557" y="1019" type="line"/>
      <point x="557" y="318" type="line"/>
      <point x="697" y="318" type="line"/>
    </contour>
    <contour>
      <point x="140" y="1456" type="line"/>
      <point x="140" y="1001" type="line"/>
      <point x="140" y="673"/>
      <point x="296" y="550"/>
      <point x="556" y="550" type="curve" smooth="yes"/>
      <point x="720" y="550"/>
      <point x="814" y="578"/>
      <point x="924" y="619" type="curve"/>
      <point x="924" y="777" type="line"/>
      <point x="811" y="736"/>
      <point x="692" y="708"/>
      <point x="556" y="708" type="curve" smooth="yes"/>
      <point x="399" y="708"/>
      <point x="324" y="774"/>
      <point x="324" y="1001" type="curve" smooth="yes"/>
      <point x="324" y="1456" type="line"/>
    </contour>
    <contour>
      <point x="880" y="1456" type="line"/>
      <point x="880" y="0" type="line"/>
      <point x="1064" y="0" type="line"/>
      <point x="1064" y="1456" type="line"/>
    </contour>
  </outline>
</glyph>
<glyph name="uni04C7" format="2">
  <advance width="1270"/>
  <unicode hex="04C7"/>
  <outline>
    <contour>
      <point x="167" y="1456" type="line"/>
      <point x="167" y="0" type="line"/>
      <point x="351" y="0" type="line"/>
      <point x="351" y="642" type="line"/>
      <point x="918" y="642" type="line"/>
      <point x="918" y="-84" type="line" smooth="yes"/>
      <point x="918" y="-206"/>
      <point x="880" y="-279"/>
      <point x="818" y="-279" type="curve" smooth="yes"/>
      <point x="804" y="-279"/>
      <point x="754" y="-274"/>
      <point x="736" y="-266" type="curve"/>
      <point x="724" y="-420" type="line"/>
      <point x="758" y="-433"/>
      <point x="785" y="-437"/>
      <point x="820" y="-437" type="curve" smooth="yes"/>
      <point x="995" y="-437"/>
      <point x="1102" y="-312"/>
      <point x="1102" y="-84" type="curve" smooth="yes"/>
      <point x="1102" y="1456" type="line"/>
      <point x="918" y="1456" type="line"/>
      <point x="918" y="799" type="line"/>
      <point x="351" y="799" type="line"/>
      <point x="351" y="1456" type="line"/>
    </contour>
  </outline>
</glyph>
<glyph name="uni1D0F" format="2">
  <advance width="1042"/>
  <unicode hex="1D0F"/>
  <anchor x="520" y="1290" name="top"/>
  <anchor x="520" y="0" name="bottom"/>
  <anchor x="1022" y="1290" name="top0315"/>
  <anchor x="520" y="1290" name="parent_top"/>
  <outline>
    <contour>
      <point x="946" y="587" type="line"/>
      <point x="946" y="893"/>
      <point x="773" y="1101"/>
      <point x="520" y="1101" type="curve" smooth="yes"/>
      <point x="269" y="1101"/>
      <point x="97" y="893"/>
      <point x="97" y="587" type="curve" smooth="yes"/>
      <point x="97" y="498" type="line" smooth="yes"/>
      <point x="97" y="192"/>
      <point x="271" y="-17"/>
      <point x="522" y="-17" type="curve" smooth="yes"/>
      <point x="774" y="-17"/>
      <point x="946" y="192"/>
      <point x="946" y="498" type="curve" smooth="yes"/>
    </contour>
    <contour>
      <point x="769" y="498" type="line"/>
      <point x="769" y="267"/>
      <point x="676" y="133"/>
      <point x="522" y="133" type="curve" smooth="yes"/>
      <point x="368" y="133"/>
      <point x="274" y="267"/>
      <point x="274" y="498" type="curve" smooth="yes"/>
      <point x="274" y="588" type="line" smooth="yes"/>
      <point x="274" y="818"/>
      <point x="367" y="951"/>
      <point x="520" y="951" type="curve" smooth="yes"/>
      <point x="674" y="951"/>
      <point x="769" y="818"/>
      <point x="769" y="588" type="curve" smooth="yes"/>
    </contour>
  </outline>
</glyph>
<glyph name="uni1D83" format="2">
  <advance width="1240"/>
  <unicode hex="1D83"/>
  <anchor x="485" y="1290" name="top"/>
  <anchor x="485" y="-447" name="bottom"/>
  <anchor x="1220" y="1290" name="top0315"/>
  <anchor x="485" y="1290" name="parent_top"/>
  <outline>
    <contour>
      <point x="789" y="152" type="line"/>
      <point x="789" y="0" type="line"/>
      <point x="1019" y="0" type="line"/>
      <point x="1019" y="-135" type="line" smooth="yes"/>
      <point x="1019" y="-257"/>
      <point x="969" y="-302"/>
      <point x="895" y="-302" type="curve" smooth="yes"/>
      <point x="884" y="-302"/>
      <point x="866" y="-299"/>
      <point x="852" y="-294" type="curve"/>
      <point x="852" y="-422" type="line"/>
      <point x="874" y="-431"/>
      <point x="911" y="-437"/>
      <point x="935" y="-437" type="curve" smooth="yes"/>
      <point x="1072" y="-437"/>
      <point x="1195" y="-330"/>
      <point x="1195" y="-135" type="curve" smooth="yes"/>
      <point x="1195" y="152" type="line"/>
    </contour>
    <contour>
      <point x="717" y="1082" type="line"/>
      <point x="700" y="844" type="line"/>
      <point x="700" y="14" type="line" smooth="yes"/>
      <point x="700" y="-175"/>
      <point x="607" y="-275"/>
      <point x="470" y="-275" type="curve" smooth="yes"/>
      <point x="393" y="-275"/>
      <point x="307" y="-239"/>
      <point x="230" y="-129" type="curve"/>
      <point x="139" y="-239" type="line"/>
      <point x="224" y="-380"/>
      <point x="397" y="-427"/>
      <point x="483" y="-427" type="curve" smooth="yes"/>
      <point x="713" y="-427"/>
      <point x="876" y="-264"/>
      <point x="876" y="23" type="curve" smooth="yes"/>
      <point x="876" y="1082" type="line"/>
    </contour>
    <contour>
      <point x="95" y="529" type="line"/>
      <point x="95" y="213"/>
      <point x="237" y="-20"/>
      <point x="455" y="-20" type="curve" smooth="yes"/>
      <point x="691" y="-20"/>
      <point x="802" y="177"/>
      <point x="827" y="494" type="curve"/>
      <point x="827" y="586" type="line"/>
      <point x="803" y="905"/>
      <point x="691" y="1102"/>
      <point x="457" y="1102" type="curve" smooth="yes"/>
      <point x="235" y="1102"/>
      <point x="95" y="880"/>
      <point x="95" y="550" type="curve" smooth="yes"/>
    </contour>
    <contour>
      <point x="272" y="550" type="line"/>
      <point x="272" y="765"/>
      <point x="339" y="946"/>
      <point x="503" y="946" type="curve" smooth="yes"/>
      <point x="646" y="946"/>
      <point x="717" y="806"/>
      <point x="743" y="659" type="curve"/>
      <point x="743" y="418" type="line"/>
      <point x="708" y="268"/>
      <point x="649" y="137"/>
      <point x="501" y="137" type="curve" smooth="yes"/>
      <point x="339" y="137"/>
      <point x="272" y="314"/>
      <point x="272" y="529" type="curve" smooth="yes"/>
    </contour>
  </outline>
</glyph>
<glyph name="uni1D8E" format="2">
  <advance width="899"/>
  <unicode hex="1D8E"/>
  <anchor x="453" y="1290" name="top"/>
  <anchor x="453" y="-447" name="bottom"/>
  <anchor x="879" y="1290" name="top0315"/>
  <anchor x="453" y="1290" name="parent_top"/>
  <outline>
    <contour>
      <point x="642" y="152" type="line"/>
      <point x="642" y="-135" type="line" smooth="yes"/>
      <point x="642" y="-257"/>
      <point x="592" y="-302"/>
      <point x="518" y="-302" type="curve" smooth="yes"/>
      <point x="507" y="-302"/>
      <point x="488" y="-299"/>
      <point x="474" y="-294" type="curve"/>
      <point x="475" y="-422" type="line"/>
      <point x="497" y="-431"/>
      <point x="534" y="-437"/>
      <point x="558" y="-437" type="curve" smooth="yes"/>
      <point x="694" y="-437"/>
      <point x="818" y="-330"/>
      <point x="818" y="-135" type="curve" smooth="yes"/>
      <point x="818" y="152" type="line"/>
    </contour>
    <contour>
      <point x="818" y="152" type="line"/>
      <point x="163" y="152" type="line"/>
      <point x="163" y="0" type="line"/>
      <point x="818" y="0" type="line"/>
    </contour>
    <contour>
      <point x="798" y="951" type="line"/>
      <point x="798" y="1082" type="line"/>
      <point x="686" y="1082" type="line"/>
      <point x="95" y="136" type="line"/>
      <point x="95" y="0" type="line"/>
      <point x="203" y="0" type="line"/>
    </contour>
    <contour>
      <point x="721" y="1082" type="line"/>
      <point x="98" y="1082" type="line"/>
      <point x="98" y="929" type="line"/>
      <point x="721" y="929" type="line"/>
    </contour>
  </outline>
</glyph>
<glyph name="uni1DAD" format="2">
  <advance width="1125"/>
  <unicode hex="1DAD"/>
  <outline>
    <contour>
      <point x="881" y="1024" type="line"/>
      <point x="881" y="888"/>
      <point x="844" y="780"/>
      <point x="750" y="780" type="curve" smooth="yes"/>
      <point x="686" y="780"/>
      <point x="644" y="830"/>
      <point x="644" y="975" type="curve" smooth="yes"/>
      <point x="644" y="1451" type="line"/>
      <point x="483" y="1451" type="line"/>
      <point x="483" y="943" type="line" smooth="yes"/>
      <point x="483" y="727"/>
      <point x="566" y="636"/>
      <point x="695" y="636" type="curve" smooth="yes"/>
      <point x="837" y="636"/>
      <point x="921" y="800"/>
      <point x="921" y="1025" type="curve"/>
    </contour>
    <contour>
      <point x="860" y="331" type="line"/>
      <point x="1022" y="331" type="line"/>
      <point x="1022" y="1451" type="line"/>
      <point x="860" y="1451" type="line"/>
    </contour>
    <contour>
      <point x="502" y="1024" type="line"/>
      <point x="502" y="888"/>
      <point x="464" y="780"/>
      <point x="370" y="780" type="curve" smooth="yes"/>
      <point x="306" y="780"/>
      <point x="264" y="830"/>
      <point x="264" y="975" type="curve" smooth="yes"/>
      <point x="264" y="1451" type="line"/>
      <point x="103" y="1451" type="line"/>
      <point x="103" y="943" type="line" smooth="yes"/>
      <point x="103" y="727"/>
      <point x="186" y="636"/>
      <point x="316" y="636" type="curve" smooth="yes"/>
      <point x="457" y="636"/>
      <point x="542" y="800"/>
      <point x="542" y="1025" type="curve"/>
    </contour>
  </outline>
</glyph>
<glyph name="uni1E9B" format="2">
  <advance width="648"/>
  <unicode hex="1E9B"/>
  <outline>
    <contour>
      <point x="388" y="0" type="line"/>
      <point x="388" y="1196" type="line" smooth="yes"/>
      <point x="388" y="1327"/>
      <point x="443" y="1399"/>
      <point x="539" y="1399" type="curve" smooth="yes"/>
      <point x="565" y="1399"/>
      <point x="598" y="1396"/>
      <point x="620" y="1390" type="curve"/>
      <point x="628" y="1541" type="line"/>
      <point x="594" y="1551"/>
      <point x="557" y="1557"/>
      <point x="521" y="1557" type="curve" smooth="yes"/>
      <point x="329" y="1557"/>
      <point x="211" y="1429"/>
      <point x="211" y="1196" type="curve" smooth="yes"/>
      <point x="211" y="0" type="line"/>
    </contour>
    <contour>
      <point x="380" y="1780" type="curve" smooth="yes"/>
      <point x="380" y="1722"/>
      <point x="413" y="1676"/>
      <point x="480" y="1676" type="curve" smooth="yes"/>
      <point x="546" y="1676"/>
      <point x="581" y="1722"/>
      <point x="581" y="1780" type="curve" smooth="yes"/>
      <point x="581" y="1840"/>
      <point x="546" y="1887"/>
      <point x="480" y="1887" type="curve" smooth="yes"/>
      <point x="413" y="1887"/>
      <point x="380" y="1840"/>
    </contour>
  </outline>
</glyph>
<glyph name="uni2046" format="2">
  <advance width="588"/>
  <unicode hex="2046"/>
  <outline>
    <contour>
      <point x="340" y="756" type="line"/>
      <point x="95" y="756" type="line"/>
      <point x="95" y="605" type="line"/>
      <point x="340" y="605" type="line"/>
    </contour>
    <contour>
      <point x="95" y="1512" type="line"/>
      <point x="251" y="1512" type="line"/>
      <point x="251" y="-160" type="line"/>
      <point x="95" y="-160" type="line"/>
      <point x="95" y="-312" type="line"/>
      <point x="427" y="-312" type="line"/>
      <point x="427" y="1664" type="line"/>
      <point x="95" y="1664" type="line"/>
    </contour>
  </outline>
</glyph>
<glyph name="accountof" format="2">
  <advance width="1310"/>
  <unicode hex="2100"/>
  <outline>
    <contour>
      <point x="446" y="922" type="line"/>
      <point x="446" y="886"/>
      <point x="452" y="837"/>
      <point x="461" y="812" type="curve"/>
      <point x="596" y="812" type="line"/>
      <point x="596" y="822" type="line"/>
      <point x="582" y="857"/>
      <point x="576" y="911"/>
      <point x="576" y="954" type="curve" smooth="yes"/>
      <point x="576" y="1241" type="line" smooth="yes"/>
      <point x="576" y="1401"/>
      <point x="477" y="1472"/>
      <point x="357" y="1472" type="curve" smooth="yes"/>
      <point x="222" y="1472"/>
      <point x="130" y="1364"/>
      <point x="130" y="1271" type="curve"/>
      <point x="249" y="1271" type="line"/>
      <point x="259" y="1319"/>
      <point x="285" y="1354"/>
      <point x="351" y="1354" type="curve" smooth="yes"/>
      <point x="421" y="1354"/>
      <point x="446" y="1307"/>
      <point x="446" y="1231" type="curve" smooth="yes"/>
    </contour>
    <contour>
      <point x="303" y="800" type="curve" smooth="yes"/>
      <point x="419" y="800"/>
      <point x="496" y="897"/>
      <point x="510" y="979" type="curve"/>
      <point x="465" y="1035" type="line"/>
      <point x="468" y="975"/>
      <point x="398" y="917"/>
      <point x="330" y="917" type="curve" smooth="yes"/>
      <point x="273" y="917"/>
      <point x="242" y="951"/>
      <point x="242" y="1008" type="curve" smooth="yes"/>
      <point x="242" y="1083"/>
      <point x="288" y="1113"/>
      <point x="388" y="1113" type="curve" smooth="yes"/>
      <point x="474" y="1113" type="line"/>
      <point x="473" y="1214" type="line"/>
      <point x="361" y="1214" type="line" smooth="yes"/>
      <point x="210" y="1214"/>
      <point x="112" y="1134"/>
      <point x="112" y="989" type="curve" smooth="yes"/>
      <point x="112" y="876"/>
      <point x="187" y="800"/>
    </contour>
    <contour>
      <point x="961" y="-20" type="curve" smooth="yes"/>
      <point x="1110" y="-20"/>
      <point x="1197" y="95"/>
      <point x="1197" y="234" type="curve"/>
      <point x="1067" y="234" type="line"/>
      <point x="1067" y="171"/>
      <point x="1034" y="100"/>
      <point x="961" y="100" type="curve" smooth="yes"/>
      <point x="887" y="100"/>
      <point x="853" y="187"/>
      <point x="853" y="279" type="curve" smooth="yes"/>
      <point x="853" y="356" type="line" smooth="yes"/>
      <point x="853" y="450"/>
      <point x="886" y="537"/>
      <point x="959" y="537" type="curve" smooth="yes"/>
      <point x="1033" y="537"/>
      <point x="1067" y="472"/>
      <point x="1067" y="401" type="curve"/>
      <point x="1197" y="401" type="line"/>
      <point x="1197" y="541"/>
      <point x="1108" y="657"/>
      <point x="959" y="657" type="curve" smooth="yes"/>
      <point x="811" y="657"/>
      <point x="723" y="521"/>
      <point x="723" y="356" type="curve" smooth="yes"/>
      <point x="723" y="279" type="line" smooth="yes"/>
      <point x="723" y="116"/>
      <point x="811" y="-20"/>
    </contour>
    <contour>
      <point x="1010" y="1249" type="line"/>
      <point x="913" y="1315" type="line"/>
      <point x="316" y="177" type="line"/>
      <point x="413" y="111" type="line"/>
    </contour>
  </outline>
</glyph>
<glyph name="uni2DE5" format="2">
  <unicode hex="2DE5"/>
  <anchor x="-475" y="1170" name="_top"/>
  <outline>
    <contour>
      <point x="-661" y="1597" type="curve"/>
      <point x="-560" y="1597" type="line"/>
      <point x="-557" y="1642"/>
      <point x="-527" y="1660"/>
      <point x="-477" y="1660" type="curve" smooth="yes"/>
      <point x="-432" y="1660"/>
      <point x="-408" y="1636"/>
      <point x="-408" y="1595" type="curve" smooth="yes"/>
      <point x="-408" y="1557"/>
      <point x="-425" y="1531"/>
      <point x="-471" y="1531" type="curve" smooth="yes"/>
      <point x="-558" y="1531" type="line"/>
      <point x="-558" y="1464" type="line"/>
      <point x="-464" y="1464" type="line" smooth="yes"/>
      <point x="-366" y="1464"/>
      <point x="-292" y="1511"/>
      <point x="-292" y="1600" type="curve" smooth="yes"/>
      <point x="-292" y="1703"/>
      <point x="-370" y="1759"/>
      <point x="-477" y="1759" type="curve" smooth="yes"/>
      <point x="-574" y="1759"/>
      <point x="-661" y="1697"/>
    </contour>
    <contour>
      <point x="-667" y="1364" type="line"/>
      <point x="-667" y="1245"/>
      <point x="-568" y="1192"/>
      <point x="-477" y="1192" type="curve" smooth="yes"/>
      <point x="-371" y="1192"/>
      <point x="-284" y="1253"/>
      <point x="-284" y="1356" type="curve" smooth="yes"/>
      <point x="-284" y="1456"/>
      <point x="-355" y="1499"/>
      <point x="-464" y="1499" type="curve" smooth="yes"/>
      <point x="-558" y="1499" type="line"/>
      <point x="-558" y="1433" type="line"/>
      <point x="-471" y="1433" type="line" smooth="yes"/>
      <point x="-422" y="1433"/>
      <point x="-401" y="1412"/>
      <point x="-401" y="1365" type="curve" smooth="yes"/>
      <point x="-401" y="1318"/>
      <point x="-420" y="1289"/>
      <point x="-477" y="1289" type="curve" smooth="yes"/>
      <point x="-535" y="1289"/>
      <point x="-561" y="1313"/>
      <point x="-567" y="1364" type="curve"/>
    </contour>
  </outline>
</glyph>
<glyph name="uni2E0D" format="2">
  <advance width="877"/>
  <unicode hex="2E0D"/>
  <outline>
    <contour>
      <point x="750" y="1365" type="line"/>
      <point x="142" y="635" type="line"/>
      <point x="47" y="737" type="line"/>
      <point x="655" y="1467" type="line"/>
    </contour>
  </outline>
</glyph>
<glyph name="uni2E0F" format="2">
  <advance width="1293"/>
  <unicode hex="2E0F"/>
  <outline>
    <contour>
      <point x="1205" y="-154" type="line"/>
      <point x="87" y="-154" type="line"/>
      <point x="87" y="-306" type="line"/>
      <point x="1205" y="-306" type="line"/>
    </contour>
  </outline>
</glyph>
<glyph name="uniA709" format="2">
  <advance width="696"/>
  <unicode hex="A709"/>
  <outline>
    <contour>
      <point x="535" y="1456" type="line"/>
      <point x="395" y="1456" type="line"/>
      <point x="395" y="-270" type="line"/>
      <point x="535" y="-270" type="line"/>
    </contour>
    <contour>
      <point x="70" y="981" type="curve" smooth="yes"/>
      <point x="70" y="922"/>
      <point x="104" y="876"/>
      <point x="171" y="876" type="curve" smooth="yes"/>
      <point x="237" y="876"/>
      <point x="272" y="922"/>
      <point x="272" y="981" type="curve" smooth="yes"/>
      <point x="272" y="1040"/>
      <point x="237" y="1087"/>
      <point x="171" y="1087" type="curve" smooth="yes"/>
      <point x="104" y="1087"/>
      <point x="70" y="1040"/>
    </contour>
  </outline>
</glyph>
<glyph name="uniA70A" format="2">
  <advance width="696"/>
  <unicode hex="A70A"/>
  <outline>
    <contour>
      <point x="535" y="1456" type="line"/>
      <point x="395" y="1456" type="line"/>
      <point x="395" y="-270" type="line"/>
      <point x="535" y="-270" type="line"/>
    </contour>
    <contour>
      <point x="70" y="593" type="curve" smooth="yes"/>
      <point x="70" y="534"/>
      <point x="104" y="488"/>
      <point x="171" y="488" type="curve" smooth="yes"/>
      <point x="237" y="488"/>
      <point x="272" y="534"/>
      <point x="272" y="593" type="curve" smooth="yes"/>
      <point x="272" y="652"/>
      <point x="237" y="700"/>
      <point x="171" y="700" type="curve" smooth="yes"/>
      <point x="104" y="700"/>
      <point x="70" y="652"/>
    </contour>
  </outline>
</glyph>
<glyph name="uniA70D" format="2">
  <advance width="656"/>
  <unicode hex="A70D"/>
  <outline>
    <contour>
      <point x="302" y="1456" type="line"/>
      <point x="161" y="1456" type="line"/>
      <point x="161" y="-270" type="line"/>
      <point x="302" y="-270" type="line"/>
    </contour>
    <contour>
      <point x="348" y="1369" type="curve" smooth="yes"/>
      <point x="348" y="1310"/>
      <point x="382" y="1264"/>
      <point x="448" y="1264" type="curve" smooth="yes"/>
      <point x="515" y="1264"/>
      <point x="550" y="1310"/>
      <point x="550" y="1369" type="curve" smooth="yes"/>
      <point x="550" y="1428"/>
      <point x="515" y="1475"/>
      <point x="448" y="1475" type="curve" smooth="yes"/>
      <point x="382" y="1475"/>
      <point x="348" y="1428"/>
    </contour>
  </outline>
</glyph>
<glyph name="uniA71D" format="2">
  <advance width="378"/>
  <unicode hex="A71D"/>
  <guideline x="499.0" y="0.0" angle="90.0" identifier="nwbz6vW9oI"/>
  <outline>
    <contour>
      <point x="270" y="1723" type="line"/>
      <point x="108" y="1723" type="line"/>
      <point x="118" y="950" type="line"/>
      <point x="260" y="950" type="line"/>
    </contour>
    <contour>
      <point x="103" y="727" type="curve" smooth="yes"/>
      <point x="103" y="677"/>
      <point x="132" y="637"/>
      <point x="189" y="637" type="curve" smooth="yes"/>
      <point x="245" y="637"/>
      <point x="275" y="677"/>
      <point x="275" y="727" type="curve" smooth="yes"/>
      <point x="275" y="779"/>
      <point x="245" y="821"/>
      <point x="189" y="821" type="curve" smooth="yes"/>
      <point x="132" y="821"/>
      <point x="103" y="779"/>
    </contour>
  </outline>
</glyph>
<glyph name="uniA732" format="2">
  <advance width="1848"/>
  <unicode hex="A732"/>
  <outline>
    <contour>
      <point x="1297" y="1327" type="line"/>
      <point x="1298" y="1456" type="line"/>
      <point x="1179" y="1456" type="line"/>
      <point x="880" y="514" type="line"/>
      <point x="976" y="283" type="line"/>
    </contour>
    <contour>
      <point x="1619" y="0" type="line"/>
      <point x="1807" y="0" type="line"/>
      <point x="1337" y="1456" type="line"/>
      <point x="1219" y="1456" type="line"/>
      <point x="1220" y="1327" type="line"/>
    </contour>
    <contour>
      <point x="1618" y="539" type="line"/>
      <point x="917" y="539" type="line"/>
      <point x="917" y="381" type="line"/>
      <point x="1618" y="381" type="line"/>
    </contour>
    <contour>
      <point x="629" y="1327" type="line"/>
      <point x="630" y="1456" type="line"/>
      <point x="512" y="1456" type="line"/>
      <point x="43" y="0" type="line"/>
      <point x="231" y="0" type="line"/>
    </contour>
    <contour>
      <point x="951" y="0" type="line"/>
      <point x="1139" y="0" type="line"/>
      <point x="670" y="1456" type="line"/>
      <point x="551" y="1456" type="line"/>
      <point x="553" y="1327" type="line"/>
    </contour>
    <contour>
      <point x="951" y="539" type="line"/>
      <point x="249" y="539" type="line"/>
      <point x="249" y="381" type="line"/>
      <point x="951" y="381" type="line"/>
    </contour>
  </outline>
</glyph>
<glyph name="uniA733" format="2">
  <advance width="1530"/>
  <unicode hex="A733"/>
  <outline>
    <contour>
      <point x="663" y="187" type="line"/>
      <point x="840" y="236" type="line"/>
      <point x="840" y="740" type="line" smooth="yes"/>
      <point x="840" y="982"/>
      <point x="698" y="1102"/>
      <point x="498" y="1102" type="curve" smooth="yes"/>
      <point x="274" y="1102"/>
      <point x="132" y="937"/>
      <point x="132" y="782" type="curve"/>
      <point x="309" y="782" type="line"/>
      <point x="309" y="872"/>
      <point x="379" y="953"/>
      <point x="487" y="953" type="curve" smooth="yes"/>
      <point x="603" y="953"/>
      <point x="663" y="870"/>
      <point x="663" y="742" type="curve"/>
    </contour>
    <contour>
      <point x="691" y="656" type="line"/>
      <point x="521" y="656" type="line" smooth="yes"/>
      <point x="274" y="656"/>
      <point x="114" y="533"/>
      <point x="114" y="301" type="curve" smooth="yes"/>
      <point x="114" y="121"/>
      <point x="238" y="-20"/>
      <point x="427" y="-20" type="curve" smooth="yes"/>
      <point x="618" y="-20"/>
      <point x="741" y="167"/>
      <point x="753" y="278" type="curve"/>
      <point x="678" y="367" type="line"/>
      <point x="682" y="269"/>
      <point x="587" y="142"/>
      <point x="454" y="142" type="curve" smooth="yes"/>
      <point x="344" y="142"/>
      <point x="291" y="223"/>
      <point x="291" y="326" type="curve" smooth="yes"/>
      <point x="291" y="460"/>
      <point x="384" y="526"/>
      <point x="550" y="526" type="curve" smooth="yes"/>
      <point x="693" y="526" type="line"/>
    </contour>
    <contour>
      <point x="1211" y="185" type="line"/>
      <point x="1211" y="124"/>
      <point x="1221" y="42"/>
      <point x="1238" y="0" type="curve"/>
      <point x="1421" y="0" type="line"/>
      <point x="1421" y="16" type="line"/>
      <point x="1399" y="74"/>
      <point x="1388" y="164"/>
      <point x="1388" y="236" type="curve" smooth="yes"/>
      <point x="1388" y="740" type="line" smooth="yes"/>
      <point x="1388" y="982"/>
      <point x="1240" y="1102"/>
      <point x="1041" y="1102" type="curve" smooth="yes"/>
      <point x="806" y="1102"/>
      <point x="663" y="928"/>
      <point x="663" y="734" type="curve"/>
      <point x="840" y="734" type="line"/>
      <point x="840" y="873"/>
      <point x="912" y="953"/>
      <point x="1025" y="953" type="curve" smooth="yes"/>
      <point x="1147" y="953"/>
      <point x="1211" y="870"/>
      <point x="1211" y="742" type="curve" smooth="yes"/>
    </contour>
    <contour>
      <point x="1240" y="656" type="line"/>
      <point x="1069" y="656" type="line" smooth="yes"/>
      <point x="823" y="656"/>
      <point x="663" y="533"/>
      <point x="663" y="301" type="curve" smooth="yes"/>
      <point x="663" y="121"/>
      <point x="786" y="-20"/>
      <point x="975" y="-20" type="curve" smooth="yes"/>
      <point x="1167" y="-20"/>
      <point x="1289" y="167"/>
      <point x="1301" y="278" type="curve"/>
      <point x="1226" y="367" type="line"/>
      <point x="1230" y="269"/>
      <point x="1135" y="142"/>
      <point x="1002" y="142" type="curve" smooth="yes"/>
      <point x="892" y="142"/>
      <point x="840" y="223"/>
      <point x="840" y="326" type="curve" smooth="yes"/>
      <point x="840" y="460"/>
      <point x="932" y="526"/>
      <point x="1099" y="526" type="curve" smooth="yes"/>
      <point x="1241" y="526" type="line"/>
    </contour>
  </outline>
</glyph>
<glyph name="uniA758" format="2">
  <advance width="1493"/>
  <unicode hex="A758"/>
  <outline>
    <contour>
      <point x="913" y="601" type="line" smooth="yes"/>
      <point x="913" y="279"/>
      <point x="808" y="143"/>
      <point x="607" y="143" type="curve" smooth="yes"/>
      <point x="419" y="143"/>
      <point x="299" y="279"/>
      <point x="299" y="601" type="curve" smooth="yes"/>
      <point x="299" y="856" type="line" smooth="yes"/>
      <point x="299" y="1176"/>
      <point x="417" y="1312"/>
      <point x="606" y="1312" type="curve" smooth="yes"/>
      <point x="805" y="1312"/>
      <point x="913" y="1176"/>
      <point x="913" y="856" type="curve" smooth="yes"/>
    </contour>
    <contour>
      <point x="1095" y="854" type="line" smooth="yes"/>
      <point x="1095" y="1265"/>
      <point x="907" y="1476"/>
      <point x="606" y="1476" type="curve" smooth="yes"/>
      <point x="314" y="1476"/>
      <point x="117" y="1265"/>
      <point x="117" y="854" type="curve" smooth="yes"/>
      <point x="117" y="601" type="line" smooth="yes"/>
      <point x="117" y="189"/>
      <point x="316" y="-20"/>
      <point x="607" y="-20" type="curve" smooth="yes"/>
      <point x="908" y="-20"/>
      <point x="1095" y="189"/>
      <point x="1095" y="601" type="curve" smooth="yes"/>
    </contour>
    <contour>
      <point x="793" y="163" type="line"/>
      <point x="680" y="43" type="line"/>
      <point x="1128" y="-352" type="line"/>
      <point x="1249" y="-235" type="line"/>
    </contour>
    <contour>
      <point x="1201" y="801" type="line"/>
      <point x="1275" y="677"/>
      <point x="1388" y="524"/>
      <point x="1202" y="303" type="curve" smooth="yes"/>
      <point x="731" y="-257" type="line"/>
      <point x="831" y="-365" type="line"/>
      <point x="1291" y="181" type="line" smooth="yes"/>
      <point x="1518" y="442"/>
      <point x="1494" y="649"/>
      <point x="1330" y="898" type="curve"/>
    </contour>
  </outline>
</glyph>
<glyph name="uniA784" format="2">
  <advance width="785"/>
  <unicode hex="A784"/>
  <outline>
    <contour>
      <point x="740" y="1473" type="line"/>
      <point x="719" y="1475"/>
      <point x="697" y="1476"/>
      <point x="675" y="1476" type="curve" smooth="yes"/>
      <point x="517" y="1476"/>
      <point x="406" y="1427"/>
      <point x="291" y="1374" type="curve"/>
      <point x="291" y="1210" type="line"/>
      <point x="409" y="1270"/>
      <point x="525" y="1312"/>
      <point x="675" y="1312" type="curve" smooth="yes"/>
      <point x="698" y="1312"/>
      <point x="720" y="1310"/>
      <point x="740" y="1307" type="curve"/>
    </contour>
    <contour>
      <point x="341" y="-416" type="line"/>
      <point x="341" y="1456" type="line"/>
      <point x="157" y="1456" type="line"/>
      <point x="157" y="-416" type="line"/>
    </contour>
  </outline>
</glyph>
<glyph name="uniA78B" format="2">
  <advance width="306"/>
  <unicode hex="A78B"/>
  <outline>
    <contour>
      <point x="219" y="1560" type="line"/>
      <point x="87" y="1560" type="line"/>
      <point x="87" y="1430" type="line"/>
      <point x="105" y="866" type="line"/>
      <point x="202" y="866" type="line"/>
      <point x="219" y="1430" type="line"/>
    </contour>
  </outline>
</glyph>
<glyph name="G.alt" format="2">
  <advance width="1221"/>
  <outline>
    <contour>
      <point x="1070" y="731" type="line"/>
      <point x="631" y="731" type="line"/>
      <point x="631" y="574" type="line"/>
      <point x="885" y="574" type="line"/>
      <point x="885" y="528" type="line"/>
      <point x="885" y="270"/>
      <point x="806" y="136"/>
      <point x="634" y="136" type="curve" smooth="yes"/>
      <point x="445" y="136"/>
      <point x="308" y="322"/>
      <point x="308" y="636" type="curve" smooth="yes"/>
      <point x="308" y="823" type="line" smooth="yes"/>
      <point x="308" y="1128"/>
      <point x="426" y="1319"/>
      <point x="605" y="1319" type="curve" smooth="yes"/>
      <point x="793" y="1319"/>
      <point x="860" y="1187"/>
      <point x="885" y="1030" type="curve"/>
      <point x="1068" y="1030" type="line"/>
      <point x="1034" y="1288"/>
      <point x="898" y="1477"/>
      <point x="605" y="1477" type="curve" smooth="yes"/>
      <point x="322" y="1477"/>
      <point x="124" y="1231"/>
      <point x="124" y="821" type="curve" smooth="yes"/>
      <point x="124" y="636" type="line" smooth="yes"/>
      <point x="124" y="223"/>
      <point x="342" y="-21"/>
      <point x="634" y="-21" type="curve" smooth="yes"/>
      <point x="895" y="-21"/>
      <point x="1070" y="204"/>
      <point x="1070" y="530" type="curve"/>
    </contour>
  </outline>
</glyph>
<glyph name="P.smcp" format="2">
  <advance width="987"/>
  <anchor x="511" y="1320" name="top"/>
  <anchor x="440" y="10" name="bottom"/>
  <anchor x="967" y="1600" name="top_dd"/>
  <anchor x="967" y="-407" name="bottom_dd"/>
  <anchor x="967" y="1320" name="top0315"/>
  <anchor x="511" y="1320" name="parent_top"/>
  <outline>
    <contour>
      <point x="535" y="438" type="line"/>
      <point x="778" y="438"/>
      <point x="916" y="574"/>
      <point x="916" y="798" type="curve"/>
      <point x="916" y="1011"/>
      <point x="778" y="1165"/>
      <point x="535" y="1165" type="curve"/>
      <point x="131" y="1165" type="line"/>
      <point x="131" y="0" type="line"/>
      <point x="308" y="0" type="line"/>
      <point x="308" y="1012" type="line"/>
      <point x="535" y="1012" type="line"/>
      <point x="679" y="1012"/>
      <point x="739" y="909"/>
      <point x="739" y="796" type="curve"/>
      <point x="739" y="676"/>
      <point x="679" y="591"/>
      <point x="535" y="591" type="curve"/>
      <point x="263" y="591" type="line"/>
      <point x="263" y="438" type="line"/>
    </contour>
  </outline>
</glyph>
<glyph name="V.smcp" format="2">
  <advance width="999"/>
  <anchor x="497" y="1320" name="top"/>
  <anchor x="497" y="10" name="bottom"/>
  <anchor x="979" y="1600" name="top_dd"/>
  <anchor x="979" y="-407" name="bottom_dd"/>
  <anchor x="979" y="1320" name="top0315"/>
  <anchor x="497" y="1320" name="parent_top"/>
  <outline>
    <contour>
      <point x="521" y="291" type="line"/>
      <point x="448" y="0" type="line"/>
      <point x="581" y="0" type="line"/>
      <point x="964" y="1165" type="line"/>
      <point x="775" y="1165" type="line"/>
    </contour>
    <contour>
      <point x="225" y="1165" type="line"/>
      <point x="35" y="1165" type="line"/>
      <point x="418" y="0" type="line"/>
      <point x="552" y="0" type="line"/>
      <point x="478" y="292" type="line"/>
    </contour>
  </outline>
</glyph>
<glyph name="six.sup" format="2">
  <advance width="675"/>
  <outline>
    <contour>
      <point x="468" y="799" type="line"/>
      <point x="217" y="799"/>
      <point x="89" y="635"/>
      <point x="89" y="358" type="curve"/>
      <point x="89" y="303" type="line"/>
      <point x="89" y="110"/>
      <point x="189" y="-11"/>
      <point x="350" y="-11" type="curve" smooth="yes"/>
      <point x="505" y="-11"/>
      <point x="601" y="106"/>
      <point x="601" y="260" type="curve"/>
      <point x="601" y="408"/>
      <point x="531" y="524"/>
      <point x="388" y="524" type="curve"/>
      <point x="267" y="524"/>
      <point x="193" y="415"/>
      <point x="189" y="330" type="curve"/>
      <point x="227" y="283" type="line"/>
      <point x="229" y="339"/>
      <point x="279" y="396"/>
      <point x="347" y="396" type="curve"/>
      <point x="415" y="396"/>
      <point x="453" y="341"/>
      <point x="453" y="259" type="curve" smooth="yes"/>
      <point x="453" y="179"/>
      <point x="411" y="117"/>
      <point x="347" y="117" type="curve" smooth="yes"/>
      <point x="284" y="117"/>
      <point x="237" y="174"/>
      <point x="237" y="287" type="curve" smooth="yes"/>
      <point x="237" y="403" type="line" smooth="yes"/>
      <point x="237" y="583"/>
      <point x="315" y="668"/>
      <point x="478" y="668" type="curve"/>
      <point x="487" y="668" type="line"/>
      <point x="487" y="799" type="line"/>
    </contour>
  </outline>
</glyph>
<glyph name="three.smcp" format="2">
  <advance width="918"/>
  <guideline x="0.0" y="1326.0" angle="0.0" identifier="FiS8Ap6IZq"/>
  <guideline x="0.0" y="444.0" angle="0.0" identifier="WpqmLTWbfN"/>
  <outline>
    <contour>
      <point x="313" y="668" type="line"/>
      <point x="313" y="563" type="line"/>
      <point x="452" y="563" type="line"/>
      <point x="691" y="563"/>
      <point x="786" y="715"/>
      <point x="786" y="851" type="curve"/>
      <point x="786" y="1067"/>
      <point x="646" y="1181"/>
      <point x="440" y="1181" type="curve" smooth="yes"/>
      <point x="233" y="1181"/>
      <point x="92" y="1047"/>
      <point x="92" y="862" type="curve"/>
      <point x="269" y="862" type="line"/>
      <point x="269" y="964"/>
      <point x="339" y="1029"/>
      <point x="440" y="1029" type="curve" smooth="yes"/>
      <point x="553" y="1029"/>
      <point x="610" y="960"/>
      <point x="610" y="850" type="curve"/>
      <point x="610" y="744"/>
      <point x="549" y="668"/>
      <point x="419" y="668" type="curve" smooth="yes"/>
    </contour>
    <contour>
      <point x="313" y="519" type="line"/>
      <point x="419" y="519" type="line" smooth="yes"/>
      <point x="546" y="519"/>
      <point x="625" y="461"/>
      <point x="625" y="324" type="curve" smooth="yes"/>
      <point x="625" y="204"/>
      <point x="554" y="135"/>
      <point x="440" y="135" type="curve" smooth="yes"/>
      <point x="329" y="135"/>
      <point x="261" y="208"/>
      <point x="261" y="314" type="curve"/>
      <point x="84" y="314" type="line"/>
      <point x="84" y="94"/>
      <point x="245" y="-16"/>
      <point x="439" y="-16" type="curve" smooth="yes"/>
      <point x="645" y="-16"/>
      <point x="803" y="108"/>
      <point x="803" y="325" type="curve" smooth="yes"/>
      <point x="803" y="485"/>
      <point x="732" y="624"/>
      <point x="452" y="624" type="curve" smooth="yes"/>
      <point x="313" y="624" type="line"/>
    </contour>
  </outline>
</glyph>
<glyph name="uni02E5_uni02E9_uni02E6" format="2">
  <advance width="1061"/>
  <outline>
    <contour>
      <point x="912" y="0" type="line"/>
      <point x="912" y="1456" type="line"/>
      <point x="735" y="1456" type="line"/>
      <point x="735" y="1131" type="line"/>
      <point x="515" y="434" type="line"/>
      <point x="258" y="1456" type="line"/>
      <point x="122" y="1410" type="line"/>
      <point x="492" y="0" type="line"/>
      <point x="735" y="753" type="line"/>
      <point x="735" y="0" type="line"/>
    </contour>
  </outline>
</glyph>
<glyph name="uni02E7_uni02E8_uni02E6" format="2">
  <advance width="1061"/>
  <outline>
    <contour>
      <point x="912" y="1456" type="line"/>
      <point x="735" y="1456" type="line"/>
      <point x="735" y="1131" type="line"/>
      <point x="454" y="556" type="line"/>
      <point x="241" y="807" type="line"/>
      <point x="148" y="696" type="line"/>
      <point x="481" y="324" type="line"/>
      <point x="735" y="849" type="line"/>
      <point x="735" y="0" type="line"/>
      <point x="912" y="0" type="line"/>
    </contour>
  </outline>
</glyph>
<glyph name="uni1DA4.ccmp" format="2">
  <advance width="582"/>
  <anchor x="288" y="1650" name="top"/>
  <anchor x="288" y="1650" name="parent_top"/>
  <outline>
    <contour>
      <point x="371" y="1451" type="line"/>
      <point x="209" y="1451" type="line"/>
      <point x="209" y="650" type="line"/>
      <point x="371" y="650" type="line"/>
    </contour>
    <contour>
      <point x="527" y="1168" type="line"/>
      <point x="55" y="1168" type="line"/>
      <point x="55" y="1023" type="line"/>
      <point x="527" y="1023" type="line"/>
    </contour>
  </outline>
</glyph>
